<?xml version="1.0" standalone="no"?>
<!DOCTYPE svg PUBLIC "-//W3C//DTD SVG 20010904//EN"
 "http://www.w3.org/TR/2001/REC-SVG-20010904/DTD/svg10.dtd">
<svg version="1.0" xmlns="http://www.w3.org/2000/svg"
 width="700.000000pt" height="700.000000pt" viewBox="0 0 700.000000 700.000000"
 preserveAspectRatio="xMidYMid meet">
<metadata>
Created by potrace 1.11, written by Peter Selinger 2001-2013
</metadata>
<g transform="translate(0.000000,700.000000) scale(0.100000,-0.100000)"
fill="#000000" stroke="none">
<path d="M3477 6824 c-1 -1 -67 -4 -147 -8 -80 -4 -158 -9 -175 -11 -158 -20
-157 -20 -220 -30 -65 -10 -266 -55 -325 -73 -30 -9 -57 -16 -60 -17 -90 -18
-372 -131 -545 -217 -210 -106 -491 -289 -635 -414 -14 -12 -47 -41 -75 -65
-99 -85 -287 -283 -385 -405 -282 -351 -503 -780 -615 -1194 -15 -54 -45 -180
-49 -205 -3 -16 -10 -55 -16 -85 -60 -309 -70 -745 -25 -1060 3 -20 7 -45 9
-56 2 -11 7 -47 10 -80 17 -160 123 -515 217 -726 40 -92 133 -270 172 -332 6
-11 32 -52 56 -90 63 -102 198 -287 281 -386 80 -95 250 -270 323 -333 27 -23
59 -52 73 -64 13 -12 41 -34 61 -50 21 -15 40 -31 43 -34 8 -9 180 -132 240
-171 200 -130 407 -235 610 -309 30 -11 62 -23 70 -26 8 -3 26 -8 39 -10 13
-2 40 -11 60 -19 20 -8 52 -19 71 -24 19 -5 69 -18 110 -30 115 -33 288 -67
425 -84 166 -21 557 -28 710 -13 44 5 98 10 120 12 96 10 263 42 420 81 92 23
312 92 360 114 11 5 70 30 130 55 756 321 1403 966 1730 1725 69 159 164 446
189 570 32 160 46 233 52 275 3 28 8 59 10 70 25 130 25 760 0 837 -3 7 -7 33
-10 58 -20 153 -53 300 -123 535 -121 406 -343 806 -636 1150 -71 82 -302 312
-371 370 -76 62 -224 175 -230 175 -3 0 -33 20 -68 44 -151 105 -372 225 -563
306 -226 96 -551 189 -683 195 -40 2 -85 6 -100 9 -94 18 -521 50 -535 40z
m263 -788 c86 -8 290 -43 365 -62 33 -9 68 -18 78 -19 34 -7 259 -86 315 -111
138 -61 398 -203 434 -237 7 -7 36 -27 63 -46 224 -155 477 -420 637 -666 189
-293 321 -629 379 -965 9 -54 12 -75 28 -214 9 -78 7 -366 -3 -466 -42 -418
-182 -807 -419 -1165 -236 -357 -563 -648 -957 -852 -158 -82 -428 -183 -554
-207 -12 -2 -42 -9 -67 -15 -64 -15 -221 -40 -299 -48 -134 -14 -455 -8 -570
11 -14 3 -47 7 -75 11 -65 8 -281 59 -365 86 -115 38 -286 109 -397 165 -106
55 -364 220 -414 266 -14 12 -47 41 -74 63 -94 76 -291 282 -345 359 -8 12
-19 26 -25 32 -16 17 -81 112 -136 198 -49 76 -179 325 -179 342 0 5 -7 23
-16 39 -32 61 -120 345 -138 450 -3 17 -8 41 -11 55 -2 13 -7 42 -10 65 -3 22
-8 51 -10 65 -31 180 -23 578 15 760 6 25 12 61 15 80 33 207 155 528 286 756
276 481 689 849 1199 1071 81 35 183 75 200 78 3 1 37 11 75 23 144 44 358 85
505 98 41 3 76 7 77 8 5 5 331 -2 393 -8z"/>
<path d="M3419 3889 c-93 -14 -116 -19 -173 -39 -244 -87 -423 -276 -498 -529
-26 -87 -31 -269 -11 -366 36 -172 133 -331 277 -453 47 -40 160 -101 231
-126 106 -37 303 -53 390 -33 132 32 179 50 270 105 280 170 425 500 360 817
-61 293 -281 528 -563 601 -79 20 -221 32 -283 23z"/>
</g>
</svg>
