<svg id="Layer_2" data-name="Layer 2" xmlns="http://www.w3.org/2000/svg" viewBox="0 0 56.69 56.69"><defs><style>.cls-1{fill:#ce173c;}</style></defs><title>favicon</title><path d="M1.52,30.65c0,.09,0,.18,0,.26.07.73.17,1.45.3,2.15,0,.11,0,.22,0,.32.14.71.3,1.4.49,2.09a2.33,2.33,0,0,0,.07.25c.2.71.43,1.41.68,2.1l0,.07A27.3,27.3,0,0,0,6.45,44l0,0c.45.62.92,1.23,1.42,1.81a27.08,27.08,0,0,0,9.35,7l.13.06c.64.28,1.3.55,2,.78l.11,0c.68.24,1.36.45,2.06.64h0c.66.17,1.34.32,2,.44l.32.06c.66.11,1.33.2,2,.26l.34,0c.71.06,1.41.1,2.13.1h0a26.84,26.84,0,0,0,11.56-2.61l.11-.05a26.64,26.64,0,0,0,4.26-2.57,28.16,28.16,0,0,0,3.11-2.66,26.6,26.6,0,0,0,2.75-3.24c.44-.59.85-1.21,1.24-1.84a28.29,28.29,0,0,0,1.54-2.94,26.89,26.89,0,0,0,2.36-11c0-.72,0-1.42-.09-2.12l0-.35c-.06-.67-.15-1.34-.26-2l-.06-.33a26.29,26.29,0,0,0-1.07-4.08.56.56,0,0,0,0-.12c-.23-.67-.5-1.32-.78-2l-.06-.12a26.6,26.6,0,0,0-3.37-5.56h0a26.75,26.75,0,0,0-3.76-3.91h0c-.58-.49-1.18-.95-1.8-1.4l-.06,0c-.61-.43-1.24-.85-1.89-1.23l0,0a26.4,26.4,0,0,0-4.15-2h0c-.69-.26-1.38-.48-2.09-.68l-.25-.08c-.68-.18-1.37-.34-2.08-.47L33,1.83c-.7-.12-1.41-.22-2.13-.29l-.27,0c-.75-.06-1.51-.1-2.28-.1A26.89,26.89,0,0,0,6.94,12l-.39.52A26.77,26.77,0,0,0,1.42,28.35h0C1.42,29.12,1.46,29.89,1.52,30.65ZM28.35,7.72A20.63,20.63,0,1,1,7.72,28.35,20.62,20.62,0,0,1,28.35,7.72Z"/><circle class="cls-1" cx="28.35" cy="31.48" r="6.32"/></svg>